<?xml version="1.0" encoding="UTF-8" standalone="no"?>
<svg
   id="Layer_1"
   data-name="Layer 1"
   viewBox="0 0 439.11261 421.76651"
   version="1.1"
   sodipodi:docname="SAPL_Icon_transparent.svg"
   inkscape:version="1.3.2 (091e20e, 2023-11-25, custom)"
   width="439.11261"
   height="421.76651"
   xmlns:inkscape="http://www.inkscape.org/namespaces/inkscape"
   xmlns:sodipodi="http://sodipodi.sourceforge.net/DTD/sodipodi-0.dtd"
   xmlns="http://www.w3.org/2000/svg"
   xmlns:svg="http://www.w3.org/2000/svg">
  <sodipodi:namedview
     id="namedview83"
     pagecolor="#ffffff"
     bordercolor="#000000"
     borderopacity="0"
     inkscape:showpageshadow="false"
     inkscape:pageopacity="0.0"
     inkscape:pagecheckerboard="true"
     inkscape:deskcolor="#ffffff"
     inkscape:zoom="1.0099379"
     inkscape:cx="221.79582"
     inkscape:cy="236.64822"
     inkscape:window-width="1346"
     inkscape:window-height="1032"
     inkscape:window-x="234"
     inkscape:window-y="0"
     inkscape:window-maximized="0"
     inkscape:current-layer="Layer_1"
     inkscape:clip-to-page="false"
     showborder="false"
     borderlayer="false"
     shape-rendering="crispEdges"
     labelstyle="default"
     showguides="false" />
  <defs
     id="defs1">
    <style
       id="style1">
      .cls-1 {
        fill: #20232a;
      }

      .cls-2 {
        fill: #799cc1;
      }

      .cls-3 {
        fill: #8f9cc1;
      }

      .cls-4 {
        fill: #7bbdbc;
      }

      .cls-5 {
        fill: none;
      }

      .cls-6 {
        fill: #999;
      }

      .cls-7 {
        fill: #a7adbb;
      }

      .cls-8 {
        fill: #028392;
      }
    </style>
  </defs>
  <path
     class="cls-5"
     d="m 299.36437,206.5165 c 9.36,6.05 22.8,-4.35 19.52,-14.9 -1.16,-10.36 -16.48,-14.29 -22.91,-6.62 -6.32,5.78 -4.93,18.1 3.39,21.53 z"
     id="path1" />
  <path
     class="cls-5"
     d="m 299.36437,206.5165 c 9.36,6.05 22.8,-4.35 19.52,-14.9 -1.16,-10.36 -16.48,-14.29 -22.91,-6.62 -6.32,5.78 -4.93,18.1 3.39,21.53 z"
     id="path2" />
  <path
     class="cls-5"
     d="m 36.304376,179.4065 c -5.15,3.88 -10.6,7.72 -15.64,11.97 2.89,-3.24 8.93,-7.65 15.62,-12.04 0,0.01 0.01,0.04 0.01,0.07 z"
     id="path3" />
  <path
     class="cls-5"
     d="m 299.36437,206.5165 c 9.36,6.05 22.8,-4.35 19.52,-14.9 -1.16,-10.36 -16.48,-14.29 -22.91,-6.62 -6.32,5.78 -4.93,18.1 3.39,21.53 z"
     id="path4" />
  <path
     class="cls-5"
     d="m 189.18437,302.0165 c 18.6,-3.89 7.82,-34.35 -8.9,-25.3 -15.37,5.2 -6.66,30.35 8.9,25.3 z"
     id="path5" />
  <path
     d="m 20.674376,191.3765 c -0.09,0.09 -0.18,0.19 -0.25,0.28 -0.63,0.73 -1.24,1.23 -1.82,1.5 0.69,-0.6 1.37,-1.2 2.07,-1.78 z"
     id="path6" />
  <path
     class="cls-5"
     d="m 189.19437,302.0165 c 18.6,-3.89 7.82,-34.35 -8.9,-25.3 -15.37,5.2 -6.66,30.35 8.9,25.3 z"
     id="path7" />
  <path
     class="cls-5"
     d="m 180.29437,276.7165 c -15.37,5.2 -6.66,30.35 8.9,25.3 18.6,-3.89 7.82,-34.35 -8.9,-25.3 z"
     id="path8" />
  <path
     class="cls-5"
     d="m 189.19437,302.0165 c 18.6,-3.89 7.82,-34.35 -8.9,-25.3 -15.37,5.2 -6.66,30.35 8.9,25.3 z"
     id="path9" />
  <path
     class="cls-5"
     d="m 299.36437,206.5165 c 9.36,6.05 22.8,-4.35 19.52,-14.9 -1.16,-10.36 -16.48,-14.29 -22.91,-6.62 -6.32,5.78 -4.93,18.1 3.39,21.53 z"
     id="path10" />
  <path
     class="cls-5"
     d="m 161.88437,152.3865 c 2.68,1.3 5.53,1.19 8.11,0.15 -2.58,1.03 -5.42,1.14 -8.11,-0.15 z"
     id="path11" />
  <path
     class="cls-5"
     d="m 170.99437,152.0865 c 0,0 -0.08,0.04 -0.12,0.06 0.04,-0.02 0.08,-0.04 0.12,-0.06 z"
     id="path12" />
  <path
     class="cls-5"
     d="m 152.16437,136.3065 c 0.07,-0.33 0.16,-0.66 0.26,-0.98 -0.1,0.32 -0.18,0.65 -0.26,0.98 z"
     id="path13" />
  <path
     class="cls-5"
     d="m 159.93437,151.6365 c 0.37,0.12 0.75,0.22 1.15,0.31 v 0 c -0.39,-0.09 -0.78,-0.19 -1.14,-0.31 z"
     id="path14" />
  <path
     class="cls-5"
     d="m 178.09437,134.5765 c 0.31,1.01 0.48,2.09 0.47,3.24 1.06,5.13 -1.89,10.6 -6.2,13.48 4.31,-2.88 7.26,-8.34 6.2,-13.47 0,-1.15 -0.16,-2.23 -0.47,-3.24 z"
     id="path15" />
  <path
     class="cls-5"
     d="m 161.07437,126.7965 c 2.68,-0.93 5.63,-0.92 8.35,-0.15 -2.71,-0.77 -5.67,-0.79 -8.35,0.15 -4.54,1.1 -7.45,4.51 -8.65,8.5 1.2,-3.99 4.11,-7.4 8.64,-8.5 z"
     id="path16" />
  <path
     class="cls-5"
     d="m 170.48437,152.3265 c -0.13,0.06 -0.25,0.12 -0.38,0.17 0.13,-0.05 0.25,-0.12 0.38,-0.17 z"
     id="path17" />
  <path
     class="cls-5"
     d="m 178.55437,137.8065 c 0,-1.15 -0.16,-2.23 -0.47,-3.24 -1.21,-3.99 -4.67,-6.79 -8.67,-7.93 -2.71,-0.77 -5.67,-0.78 -8.35,0.15 -4.53,1.1 -7.44,4.51 -8.64,8.5 0,0 0,0.02 0,0.02 -0.1,0.32 -0.18,0.65 -0.26,0.98 -1.37,6.11 1.12,13.18 7.76,15.33 0.37,0.12 0.75,0.22 1.14,0.31 v 0 c 0,0 0,0 0,0 0.27,0.16 0.54,0.31 0.81,0.44 2.68,1.3 5.53,1.19 8.11,0.15 0.04,-0.01 0.07,-0.03 0.11,-0.04 0.13,-0.05 0.25,-0.12 0.38,-0.17 0.13,-0.06 0.26,-0.11 0.39,-0.18 0.04,-0.02 0.08,-0.04 0.12,-0.06 0.47,-0.24 0.93,-0.5 1.37,-0.8 4.31,-2.88 7.26,-8.34 6.2,-13.48 z"
     id="path18" />
  <path
     class="cls-5"
     d="m 189.19437,302.0165 c 18.6,-3.89 7.82,-34.35 -8.9,-25.3 -15.37,5.2 -6.66,30.35 8.9,25.3 z"
     id="path19" />
  <path
     class="cls-5"
     d="m 122.95437,81.916499 c 0.06,-1.43 0.13,-2.89 0.21,-4.35 -0.06,0.02 -0.12,0.04 -0.18,0.06 -0.02,1.43 -0.03,2.86 -0.03,4.3 z"
     id="path20" />
  <path
     class="cls-5"
     d="m 178.09437,134.5765 c -1.21,-3.99 -4.67,-6.79 -8.67,-7.93 -2.71,-0.77 -5.67,-0.79 -8.35,0.15 -4.54,1.1 -7.45,4.51 -8.65,8.5 0,0 0,0.02 0,0.02 -0.1,0.32 -0.18,0.65 -0.26,0.98 -1.37,6.11 1.12,13.18 7.76,15.33 0.37,0.12 0.75,0.22 1.15,0.31 0.27,0.16 0.54,0.31 0.81,0.44 2.68,1.3 5.53,1.19 8.11,0.15 0.04,-0.01 0.07,-0.03 0.11,-0.04 0.13,-0.05 0.25,-0.12 0.38,-0.17 0.13,-0.06 0.26,-0.11 0.39,-0.18 0.04,-0.02 0.08,-0.04 0.12,-0.06 0.47,-0.24 0.93,-0.5 1.37,-0.8 4.31,-2.88 7.26,-8.34 6.2,-13.47 0,-1.15 -0.16,-2.23 -0.47,-3.24 z"
     id="path21" />
  <path
     class="cls-5"
     d="m 178.09437,134.5765 c -1.21,-3.99 -4.67,-6.79 -8.67,-7.93 -2.71,-0.77 -5.67,-0.79 -8.35,0.15 -4.54,1.1 -7.45,4.51 -8.65,8.5 0,0 0,0.02 0,0.02 -0.1,0.32 -0.18,0.65 -0.26,0.98 -1.37,6.11 1.12,13.18 7.76,15.33 0.37,0.12 0.75,0.22 1.15,0.31 0.27,0.16 0.54,0.31 0.81,0.44 2.68,1.3 5.53,1.19 8.11,0.15 0.04,-0.01 0.07,-0.03 0.11,-0.04 0.13,-0.05 0.25,-0.12 0.38,-0.17 0.13,-0.06 0.26,-0.11 0.39,-0.18 0.04,-0.02 0.08,-0.04 0.12,-0.06 0.47,-0.24 0.93,-0.5 1.37,-0.8 4.31,-2.88 7.26,-8.34 6.2,-13.47 0,-1.15 -0.16,-2.23 -0.47,-3.24 z"
     id="path22" />
  <path
     class="cls-5"
     d="m 295.97437,184.9865 c -6.32,5.78 -4.93,18.1 3.39,21.53 9.36,6.05 22.8,-4.35 19.52,-14.9 -1.16,-10.36 -16.48,-14.29 -22.91,-6.62 z"
     id="path23" />
  <path
     class="cls-8"
     d="m 122.95437,81.916499 c 0,1.08 0.01,2.15 0.03,3.23 l -0.41,0.12 0.39,-5.45 c 0,0.7 -0.01,1.4 -0.01,2.1 z"
     id="path24" />
  <path
     class="cls-8"
     d="m 123.12437,77.576499 0.23,-3.12 c -0.06,1.04 -0.13,2.07 -0.19,3.11 -0.01,0 -0.03,0.01 -0.04,0.01 z"
     id="path25" />
  <path
     class="cls-8"
     d="m 125.14437,52.876499 0.07,-0.03 c -0.03,0.29 -0.15,1.14 -0.29,2.39 z"
     id="path26" />
  <path
     class="cls-8"
     d="m 125.85437,47.416499 0.2,-0.04 c -0.25,1.37 -0.44,2.73 -0.58,4.09 l 0.38,-4.04 z"
     id="path27" />
  <path
     class="cls-3"
     d="m 200.66437,265.8565 c -7.31,-6.2 -19.75,-0.82 -25.14,-9.52 -34.41,-49.9 -52.04,-110.41 -52.54,-170.850001 v -0.35 c -0.01,-1.08 -0.03,-2.15 -0.03,-3.23 0,-0.7 0.01,-1.4 0.01,-2.1 0,-0.7 0,-1.46 0.01,-2.19 0.04,-0.01 0.1,-0.03 0.15,-0.04 0.01,0 0.03,-0.01 0.04,-0.01 0.06,-1.04 0.13,-2.07 0.19,-3.11 0.07,-1.18 0.15,-2.36 0.23,-3.53 0.03,-0.5 0.06,-0.98 0.1,-1.47 0.01,-0.18 0.03,-0.36 0.04,-0.54 0.04,-0.6 0.09,-1.2 0.15,-1.78 0.16,-2.04 0.32,-4.01 0.48,-5.85 0.03,-0.42 0.06,-0.83 0.1,-1.24 0,-0.03 0,-0.06 0.01,-0.09 0.07,-0.85 0.15,-1.66 0.22,-2.44 0.07,-0.8 0.16,-1.56 0.22,-2.26 0.15,-1.26 0.26,-2.1 0.29,-2.39 0.03,-0.07 0.03,-0.12 0.03,-0.12 l 0.1,-0.04 c 0.03,-0.26 0.06,-0.53 0.09,-0.8 0.01,-0.13 0.03,-0.28 0.04,-0.42 0.15,-1.36 0.34,-2.72 0.58,-4.09 1.94,-11.36 6.98,-22.53 18.69,-26.6 12.26,-2.77 21.75,4.93 29.85,13.43 0.92,0.96 1.81,1.93 2.69,2.89 h 0.01 c 0.54,-0.04 1.12,-0.12 1.77,-0.19 0.06,0 0.1,-0.01 0.16,-0.01 0.34,-0.04 0.7,-0.07 1.07,-0.12 0.47,-0.04 0.95,-0.1 1.46,-0.15 0.64,-0.07 1.31,-0.13 2.01,-0.19 0.51,-0.06 1.05,-0.1 1.59,-0.15 0.48,-0.03 0.96,-0.07 1.46,-0.12 0.48,-0.04 0.99,-0.09 1.52,-0.13 0.82,-0.06 1.66,-0.12 2.54,-0.19 0.44,-0.03 0.88,-0.06 1.33,-0.09 1.96,-0.13 4.04,-0.25 6.25,-0.35 0.74,-0.03 1.52,-0.07 2.29,-0.1 -0.04,-0.07 -0.1,-0.16 -0.16,-0.23 -9.88,-13.45 -21.18,-26.3699997 -36.93,-32.7199997 -19.49,-7.55 -42.44,3.93 -51.45,21.9899997 -4.1,8.93 -5.49,18.61 -6.69,28.28 -0.03,0.28 -0.07,0.67 -0.13,1.15 -0.01,0.16 -0.03,0.32 -0.06,0.5 0,0.03 0,0.04 -0.01,0.07 -0.01,0.13 -0.03,0.28 -0.04,0.42 v 0.04 c -0.01,0.16 -0.03,0.34 -0.06,0.51 -0.12,1.18 -0.28,2.67 -0.44,4.39 -0.04,0.39 -0.07,0.8 -0.12,1.23 -0.07,0.77 -0.15,1.59 -0.22,2.44 -0.04,0.53 -0.09,1.07 -0.13,1.61 -0.01,0.15 -0.01,0.31 -0.03,0.45 -0.03,0.35 -0.06,0.72 -0.09,1.08 -0.12,1.61 -0.25,3.31 -0.35,5.09 -0.04,0.76 -0.09,1.53 -0.13,2.31 -0.06,0.8 -0.09,1.62 -0.13,2.44 -0.06,1.23 -0.12,2.48 -0.15,3.75 -0.03,0.36 -0.03,0.73 -0.04,1.09 -0.03,0.74 -0.04,1.49 -0.06,2.23 -0.03,1.04 -0.04,2.07 -0.06,3.11 0.23,16.290001 1.4,32.580001 3.94,48.690001 0.38,2.47 0.8,4.92 1.26,7.37 -0.09,0.04 -0.16,0.07 -0.25,0.1 0.23,1.3 0.48,2.6 0.72,3.91 1.01,5.49 2.1,11.11 3.21,16.23 0.01,-0.01 0.04,-0.01 0.06,-0.03 0.6,2.38 1.21,4.74 1.87,7.11 10,36.63 26.12,71.56 48.07,102.57 -2.96,9.2 -6.93,19.72 -1.27,28.8 7.47,16.01 31.08,20.64 43.56,7.81 13.12,-11.23 11.12,-34.5 -3.78,-43.27 z m -11.47,36.16 c -15.56,5.04 -24.26,-20.1 -8.89,-25.3 16.72,-9.05 27.49,21.4 8.89,25.3 z"
     id="path28" />
  <path
     class="cls-5"
     d="m 295.97437,184.9865 c -6.32,5.78 -4.93,18.1 3.39,21.53 9.36,6.05 22.8,-4.35 19.52,-14.9 -1.16,-10.36 -16.48,-14.29 -22.91,-6.62 z"
     id="path29" />
  <path
     class="cls-5"
     d="m 89.404376,345.2665 c 0.09,-0.96 0.22,-1.92 0.38,-2.88 -0.16,0.96 -0.29,1.92 -0.38,2.88 z"
     id="path30" />
  <path
     class="cls-5"
     d="m 91.834376,334.0465 c -0.27,0.86 -0.52,1.71 -0.76,2.58 0.24,-0.86 0.5,-1.72 0.76,-2.58 z"
     id="path31" />
  <path
     class="cls-5"
     d="m 88.394376,356.4065 c -0.6,-1.78 -0.95,-3.6 -1.12,-5.46 0.16,1.86 0.52,3.69 1.12,5.46 z"
     id="path32" />
  <path
     class="cls-5"
     d="m 89.294376,346.6965 c -0.05,0.95 -0.06,1.9 -0.03,2.84 -0.03,-0.94 -0.02,-1.88 0.03,-2.84 z"
     id="path33" />
  <path
     class="cls-5"
     d="m 91.924376,333.7565 c -0.03,0.1 -0.06,0.2 -0.09,0.29 v 0 c 0.03,-0.1 0.06,-0.2 0.09,-0.29 z"
     id="path34" />
  <polygon
     class="cls-5"
     points=""
     id="polygon34"
     transform="translate(-180.42563,-165.4335)" />
  <path
     class="cls-5"
     d="m 178.09437,134.5765 c -1.21,-3.99 -4.67,-6.79 -8.67,-7.93 -2.72,-0.77 -5.66,-0.79 -8.34,0.15 -2.26,0.54 -4.13,1.68 -5.58,3.17 l -0.53,0.57 c -0.16,0.2 -0.32,0.41 -0.48,0.61 -0.31,0.41 -0.6,0.85 -0.85,1.3 -0.53,0.91 -0.93,1.87 -1.23,2.86 v 0 c -0.1,0.34 -0.19,0.67 -0.26,1.01 -1.02,4.53 0.1,9.61 3.46,12.79 0.47,0.44 0.96,0.85 1.52,1.21 0.83,0.55 1.77,0.99 2.79,1.33 0.32,0.1 0.64,0.19 0.99,0.26 0.06,0.01 0.1,0.03 0.16,0.04 0.26,0.16 0.53,0.31 0.8,0.44 2.69,1.3 5.53,1.18 8.1,0.16 0.04,-0.01 0.09,-0.03 0.12,-0.04 0.13,-0.06 0.25,-0.12 0.38,-0.18 0.13,-0.06 0.26,-0.12 0.39,-0.18 0.04,-0.03 0.07,-0.04 0.12,-0.07 0.47,-0.23 0.92,-0.5 1.37,-0.79 4.31,-2.88 7.26,-8.35 6.19,-13.47 0.01,-1.15 -0.16,-2.23 -0.47,-3.24 z"
     id="path35" />
  <path
     class="cls-5"
     d="m 379.77437,256.2665 v 0 c 0,0 0.03,-0.08 0.04,-0.11 v 0 c 0,0 -0.03,0.07 -0.04,0.11 z"
     id="path36" />
  <polygon
     class="cls-5"
     points=""
     id="polygon36"
     transform="translate(-180.42563,-165.4335)" />
  <path
     class="cls-5"
     d="m 379.77437,256.2665 c 0,0 0.03,-0.08 0.04,-0.11 v 0 c 0,0 -0.03,0.08 -0.04,0.11 z"
     id="path37" />
  <polygon
     class="cls-5"
     points=""
     id="polygon37"
     transform="translate(-180.42563,-165.4335)" />
  <path
     class="cls-5"
     d="m 379.77437,256.2665 v 0 c 0,0 0,0 0,0 0.01,0 0.03,0 0.04,0 v 0 c 0,0 -0.03,0 -0.04,0 z"
     id="path38" />
  <path
     class="cls-5"
     d="m 379.81437,256.2665 v 0 c 0.31,-0.04 0.62,-0.09 0.93,-0.13 -0.31,0.04 -0.63,0.09 -0.93,0.13 z"
     id="path39" />
  <path
     class="cls-5"
     d="m 379.77437,256.2665 c 0,0 0.03,0 0.04,0 v 0 c 0,0 -0.03,0 -0.04,0 z"
     id="path40" />
  <path
     class="cls-5"
     d="m 380.75437,256.1265 c -0.31,0.04 -0.63,0.09 -0.93,0.13 v 0 c 0.32,-0.05 0.65,-0.09 0.98,-0.14 -0.02,0 -0.03,0 -0.05,0 z"
     id="path41" />
  <polygon
     class="cls-5"
     points=""
     id="polygon41"
     transform="translate(-180.42563,-165.4335)" />
  <path
     class="cls-5"
     d="m 178.09437,134.5765 c -1.21,-3.99 -4.67,-6.79 -8.67,-7.93 -2.72,-0.77 -5.66,-0.79 -8.34,0.15 -2.26,0.54 -4.13,1.68 -5.58,3.17 l -0.53,0.57 c -0.16,0.2 -0.32,0.41 -0.48,0.61 -0.31,0.41 -0.6,0.85 -0.85,1.3 -0.53,0.91 -0.93,1.87 -1.23,2.86 v 0 c -0.1,0.34 -0.19,0.67 -0.26,1.01 -1.02,4.53 0.1,9.61 3.46,12.79 0.47,0.44 0.96,0.85 1.52,1.21 0.83,0.55 1.77,0.99 2.79,1.33 0.32,0.1 0.64,0.19 0.99,0.26 0.06,0.01 0.1,0.03 0.16,0.04 0.26,0.16 0.53,0.31 0.8,0.44 2.69,1.3 5.53,1.18 8.1,0.16 0.04,-0.01 0.09,-0.03 0.12,-0.04 0.13,-0.06 0.25,-0.12 0.38,-0.18 0.13,-0.06 0.26,-0.12 0.39,-0.18 0.04,-0.03 0.07,-0.04 0.12,-0.07 0.47,-0.23 0.92,-0.5 1.37,-0.79 4.31,-2.88 7.26,-8.35 6.19,-13.47 0.01,-1.15 -0.16,-2.23 -0.47,-3.24 z"
     id="path42" />
  <path
     class="cls-5"
     d="m 401.03437,202.7365 c 0,0 0,0 0.01,0.01 0.17,0.13 0.34,0.26 0.51,0.4 -0.18,-0.14 -0.35,-0.27 -0.52,-0.41 z"
     id="path43" />
  <path
     class="cls-5"
     d="m 398.41437,200.6965 v 0 c 0.78,0.6 1.57,1.23 2.37,1.86 0.05,0.04 0.1,0.08 0.16,0.12 -0.85,-0.67 -1.7,-1.34 -2.53,-1.98 z"
     id="path44" />
  <path
     class="cls-5"
     d="m 398.72437,200.9365 -0.31,-0.23 v 0 c 0.1,0.06 0.2,0.15 0.31,0.23 z"
     id="path45" />
  <path
     class="cls-5"
     d="m 405.21437,206.1865 c -0.23,-0.2 -0.47,-0.39 -0.71,-0.59 0.37,0.32 0.74,0.63 1.11,0.95 -0.13,-0.11 -0.25,-0.24 -0.38,-0.35 0,0 -0.01,-0.01 -0.02,-0.02 z"
     id="path46" />
  <path
     class="cls-5"
     d="m 401.84437,203.4065 c -0.26,-0.23 -0.54,-0.45 -0.8,-0.66 0.17,0.15 0.34,0.26 0.51,0.39 0.1,0.07 0.19,0.16 0.29,0.26 z"
     id="path47" />
  <path
     class="cls-5"
     d="m 400.94437,202.6665 c -0.05,-0.04 -0.1,-0.08 -0.16,-0.12 0.09,0.07 0.17,0.13 0.26,0.2 0,0 0,0 -0.01,-0.01 -0.03,-0.02 -0.06,-0.05 -0.09,-0.07 z"
     id="path48" />
  <polygon
     class="cls-5"
     points="578.84,366.13 578.84,366.14 "
     id="polygon48"
     transform="translate(-180.42563,-165.4335)" />
  <path
     class="cls-7"
     d="m 383.33437,246.6465 c -0.09,0.25 -0.17,0.5 -0.28,0.74 l -1.07,-0.39 -5.78,-2.13 0.26,-0.72 5.8,2.1 1.07,0.39 z"
     id="path49" />
  <polygon
     class="cls-7"
     points="570.61,414.58 570.61,414.56 570.62,414.56 "
     id="polygon49"
     transform="translate(-180.42563,-165.4335)" />
  <path
     class="cls-7"
     d="m 383.33437,246.6465 c -0.09,0.25 -0.18,0.5 -0.28,0.75 0.09,-0.25 0.18,-0.5 0.28,-0.75 z"
     id="path50" />
  <polygon
     class="cls-7"
     points="570.33,415.35 570.33,415.34 570.35,415.34 "
     id="polygon50"
     transform="translate(-180.42563,-165.4335)" />
  <path
     class="cls-7"
     d="m 379.77437,256.2665 c 0,0 0.03,-0.08 0.04,-0.12 v 0 c 0,0 -0.03,0.08 -0.04,0.12 z"
     id="path51" />
  <path
     class="cls-7"
     d="m 395.80437,209.6665 c -0.08,0.26 -0.16,0.52 -0.24,0.79 0.08,-0.26 0.16,-0.52 0.24,-0.79 z"
     id="path52" />
  <path
     class="cls-7"
     d="m 392.82437,219.2065 c -0.26,0.85 -0.53,1.69 -0.8,2.53 -0.48,1.46 -0.96,2.92 -1.46,4.37 0.76,-2.29 1.52,-4.58 2.26,-6.89 z"
     id="path53" />
  <path
     class="cls-5"
     d="m 295.97437,184.9865 c -6.32,5.78 -4.93,18.1 3.39,21.53 9.36,6.04 22.8,-4.35 19.52,-14.91 -1.15,-10.37 -16.48,-14.29 -22.91,-6.63 z"
     id="path54" />
  <path
     class="cls-5"
     d="m 295.97437,184.9865 c -6.32,5.78 -4.93,18.1 3.39,21.53 9.36,6.04 22.8,-4.35 19.52,-14.91 -1.15,-10.37 -16.48,-14.29 -22.91,-6.63 z"
     id="path55" />
  <polygon
     class="cls-5"
     points="320.42,535.69 329.83,543.89 "
     id="polygon55"
     transform="translate(-180.42563,-165.4335)" />
  <path
     class="cls-4"
     d="m 258.34437,43.176499 c 3.38,0.79 6.77,1.5 10.17,2.17 l -2.77,3.06 -5.86,-1.23 c -1.35,-0.29 -2.69,-0.58 -4.02,-0.88 l -17.49,-0.29 -20.01,-0.79 1.75,-2.46 0.33,-0.46 c 4.63,0.02 9.54,0.13 14.65,0.35 l -0.02,0.15 c 0.04,-0.06 0.06,-0.1 0.1,-0.15 1.44,0.06 2.88,0.15 4.36,0.23 l 18.8,0.29 z"
     id="path56" />
  <path
     class="cls-4"
     d="m 332.47437,46.526499 0.26,0.03 c -0.38,-2.5 -0.82,-4.96 -1.36,-7.42 -1.28,-5.97 -3.14,-11.77 -6.2,-17.12 -9.8,-15.5599997 -29.66,-26.1599997 -47.96,-20.4499997 -11.72,4.03 -21.05,11.8699997 -29.05,21.0499997 -3.61,4.13 -6.95,8.53 -10.1,12.95 l 0.73,0.03 18.35,0.31 0.74,0.18 c 1.37,0.31 2.76,0.61 4.15,0.91 0.69,-0.76 1.4,-1.53 2.12,-2.29 8.13,-8.66 17.47,-16.86 29.94,-13.87 11.66,4.31 17.94,16.32 19.28,28.12 3.37,24.58 2.74,49.56 0.1,74.250001 l 18.99,6.73 c 1.71,-12.7 2.76,-25.46 3.24,-38.260001 0.1,-2.6 0.18,-5.21 0.23,-7.82 q 0,0 0.03,0.01 c -0.19,-20.23 -3.5,-37.31 -3.5,-37.31 z"
     id="path57" />
  <g
     id="g59"
     transform="translate(-180.42563,-165.4335)">
    <path
       class="cls-6"
       d="m 202.82,405.05 c 4.38,7.54 11.8,11.17 19.82,13.36 2.96,0.83 6,1.46 9,2 l 1.58,4.38 8.69,16.92 c -4.08,-0.5 -8.17,-1.02 -12.25,-1.67 -12.07,-1.94 -23.84,-5.11 -33.87,-12.42 -15.61,-10.82 -19.11,-33.43 -11.48,-50.02 3.29,-7.57 8.65,-13.63 14.71,-19.01 0.58,-0.29 1.21,-0.77 1.83,-1.5 0.06,-0.1 0.15,-0.21 0.25,-0.29 5.02,-4.25 10.48,-8.09 15.63,-11.96 0,-0.04 -0.02,-0.06 -0.02,-0.08 0.79,-0.5 1.58,-1.02 2.38,-1.54 0.79,-0.5 1.6,-1.02 2.4,-1.52 1.17,-0.73 2.33,-1.46 3.54,-2.21 0.63,-0.4 1.27,-0.77 1.92,-1.17 2.61,-1.6 5.31,-3.21 8.13,-4.88 0,0.04 0.02,0.08 0.02,0.1 11.13,-6.11 22.47,-11.73 34.03,-16.96 3.21,-1.48 6.44,-2.9 9.67,-4.29 l 0.31,1.65 c 1.15,6.21 2.25,11.77 3.27,16.57 l 0.35,1.67 c -2.23,0.92 -4.44,1.88 -6.63,2.83 -22.28,9.92 -43.33,22.61 -62.65,37.49 -9.88,7.15 -16.84,20.94 -10.65,32.55 z"
       id="path58" />
    <path
       class="cls-6"
       d="m 611.42,370.06 c -6.79,-9.17 -15.92,-16.15 -25.01,-22.97 -0.58,-0.4 -1.25,-0.83 -1.96,-1.29 l -1.5,-0.96 -1.21,-0.77 -1.94,-1.23 -2,-1.25 -1.92,-1.21 -2.67,-1.67 c -1.13,-0.69 -2.21,-1.38 -3.25,-2 0,0 -1.19,-0.75 -1.48,-0.94 -1.46,-0.92 -2.79,-1.73 -3.83,-2.35 l -0.44,-0.27 h -0.04 l -0.56,-0.35 -1.02,-0.65 -0.12,-0.06 c -1.48,-0.77 -2.96,-1.52 -4.44,-2.25 -15.21,-7.69 -30.55,-15.09 -46.35,-21.49 -0.88,-0.33 -1.79,-0.65 -2.71,-0.96 -1.13,-0.4 -2.25,-0.77 -3.4,-1.15 -0.35,-0.13 -0.69,-0.25 -1.02,-0.35 -0.06,-0.02 -0.17,-0.04 -0.23,-0.08 -4.36,-1.42 -8.61,-2.73 -11.77,-3.71 -0.5,-0.15 -0.98,-0.29 -1.42,-0.44 -0.69,-0.19 -1.29,-0.38 -1.81,-0.52 -36.01,-10.17 -73.59,-14.32 -110.91,-11.84 -11.17,2.13 -17.21,-10.59 -27.74,-11.71 -15.11,-3.21 -30.64,8.88 -32.22,23.84 -0.17,1.6 -0.17,3.25 0,4.9 0.06,4.42 1.38,8.65 3.54,12.36 0,0.02 0.02,0.02 0.02,0.02 5.71,9.65 17.4,15.84 28.78,13.25 12.21,-1.23 18.9,-12.36 23.59,-22.4 62.36,-5.02 125.44,9.75 179.69,40.51 2.15,1.21 4.27,2.44 6.38,3.69 l 18.42,12.4 0.21,0.15 c 0.21,0.15 0.42,0.31 0.63,0.48 0.23,0.19 0.48,0.4 0.73,0.58 0.19,0.15 0.4,0.29 0.58,0.46 0.13,0.08 0.25,0.17 0.35,0.27 0.04,0.02 0.06,0.04 0.08,0.06 l 0.02,0.02 c 0.08,0.06 0.17,0.15 0.27,0.21 0.06,0.04 0.15,0.1 0.25,0.19 0.08,0.06 0.19,0.17 0.29,0.25 l 0.58,0.5 c 0.46,0.35 0.9,0.73 1.35,1.1 0.25,0.21 0.48,0.4 0.73,0.58 0.23,0.21 0.46,0.4 0.69,0.58 0,0.02 0.02,0.02 0.02,0.02 0.12,0.13 0.25,0.25 0.38,0.35 1.06,0.92 2.08,1.88 3.08,2.86 0.04,0.04 0.1,0.1 0.15,0.15 0.6,0.58 1.19,1.19 1.75,1.79 0.04,0.06 0.08,0.1 0.12,0.15 0.46,0.5 0.92,1 1.35,1.52 0.04,0.06 0.1,0.15 0.17,0.19 0.38,0.48 0.73,0.94 1.1,1.4 0.04,0.06 0.06,0.12 0.1,0.17 0.38,0.5 0.73,0.98 1.06,1.46 0.04,0.06 0.08,0.15 0.13,0.21 0.33,0.5 0.67,1.02 0.96,1.52 0.04,0.08 0.08,0.12 0.1,0.19 0.1,0.19 0.19,0.35 0.29,0.52 0.58,1.02 1.06,2.1 1.5,3.19 0.06,0.19 0.15,0.35 0.21,0.54 0.12,0.31 0.23,0.65 0.33,0.96 0.06,0.23 0.12,0.44 0.19,0.63 0.19,0.73 0.35,1.44 0.48,2.17 0.06,0.44 0.15,0.85 0.19,1.29 0.02,0.21 0.06,0.42 0.08,0.65 0,0.19 0,0.38 0.02,0.58 0.02,0.52 0.06,1.02 0.06,1.56 -0.02,0.5 -0.04,1 -0.08,1.5 v 0.1 c -0.04,0.5 -0.1,1.02 -0.19,1.56 -0.1,0.63 -0.23,1.23 -0.38,1.83 -0.02,0.1 -0.06,0.23 -0.08,0.35 -0.15,0.46 -0.27,0.94 -0.44,1.4 -0.02,0.1 -0.06,0.21 -0.1,0.31 -0.17,0.46 -0.35,0.94 -0.56,1.4 -0.02,0.06 -0.04,0.1 -0.06,0.17 -0.25,0.5 -0.48,1 -0.77,1.48 -0.06,0.15 -0.15,0.29 -0.23,0.42 -0.02,0.06 -0.06,0.1 -0.08,0.15 -0.42,0.67 -0.85,1.31 -1.35,1.9 -0.17,0.23 -0.33,0.46 -0.5,0.67 -0.08,0.1 -0.19,0.21 -0.27,0.31 -0.29,0.33 -0.58,0.65 -0.9,0.96 -0.12,0.1 -0.23,0.23 -0.35,0.33 -0.31,0.29 -0.6,0.56 -0.92,0.85 -0.15,0.1 -0.27,0.21 -0.42,0.33 -0.29,0.25 -0.63,0.48 -0.94,0.73 -0.17,0.12 -0.31,0.25 -0.48,0.33 -0.31,0.25 -0.63,0.46 -0.98,0.67 -0.17,0.13 -0.33,0.23 -0.48,0.33 -0.35,0.21 -0.69,0.42 -1.04,0.6 -0.19,0.1 -0.33,0.21 -0.52,0.29 -0.38,0.21 -0.73,0.4 -1.13,0.58 -0.15,0.08 -0.31,0.17 -0.48,0.25 -0.54,0.25 -1.08,0.5 -1.65,0.75 -0.06,0.02 -0.1,0.04 -0.17,0.06 -0.44,0.17 -0.88,0.35 -1.33,0.52 -0.71,0.29 -1.44,0.52 -2.17,0.77 l -10.55,2.61 c -0.48,0.08 -0.94,0.17 -1.42,0.25 -0.02,0.04 -0.02,0.06 -0.04,0.1 l -0.27,0.06 -10.17,21.11 c 0.52,-0.06 1.04,-0.1 1.58,-0.17 16.48,-1.96 33.34,-4.75 46.54,-15.38 16.63,-13.32 17.21,-39.51 5.31,-56.1 z M 352.79,316.73 c -0.44,0.29 -0.9,0.54 -1.35,0.77 -0.04,0.04 -0.08,0.06 -0.12,0.08 -0.13,0.06 -0.27,0.12 -0.4,0.17 -0.13,0.06 -0.25,0.13 -0.38,0.19 -0.04,0 -0.08,0.02 -0.13,0.04 -2.56,1.02 -5.42,1.15 -8.09,-0.17 -0.15,-0.06 -0.25,-0.13 -0.4,-0.21 -0.13,-0.06 -0.27,-0.15 -0.42,-0.23 -0.06,-0.02 -0.1,-0.02 -0.17,-0.04 -0.35,-0.06 -0.67,-0.17 -0.98,-0.27 -0.19,-0.04 -0.35,-0.15 -0.54,-0.19 -0.23,-0.1 -0.5,-0.19 -0.73,-0.31 h -0.02 c -0.17,-0.08 -0.33,-0.17 -0.52,-0.27 -0.02,0 -0.06,-0.04 -0.08,-0.04 h -0.02 c -0.19,-0.1 -0.4,-0.23 -0.58,-0.35 -0.1,-0.04 -0.21,-0.08 -0.29,-0.15 -0.04,-0.02 -0.06,-0.04 -0.08,-0.06 -0.08,-0.06 -0.15,-0.12 -0.23,-0.19 -0.02,0 -0.06,-0.04 -0.1,-0.06 -0.06,-0.02 -0.1,-0.08 -0.17,-0.12 -0.25,-0.19 -0.48,-0.4 -0.71,-0.58 -0.06,-0.04 -0.1,-0.1 -0.15,-0.15 -0.08,-0.04 -0.15,-0.12 -0.21,-0.19 -0.31,-0.31 -0.6,-0.65 -0.88,-0.98 -0.1,-0.1 -0.17,-0.19 -0.25,-0.31 -0.29,-0.4 -0.58,-0.81 -0.81,-1.25 -0.02,-0.02 -0.06,-0.04 -0.06,-0.08 0,-0.02 -0.02,-0.06 -0.04,-0.08 -0.21,-0.4 -0.4,-0.79 -0.58,-1.21 -0.04,-0.13 -0.1,-0.25 -0.15,-0.38 -0.19,-0.46 -0.35,-0.94 -0.46,-1.42 -0.02,-0.06 -0.04,-0.15 -0.04,-0.21 -0.1,-0.42 -0.19,-0.85 -0.25,-1.29 -0.04,-0.15 -0.04,-0.31 -0.08,-0.48 -0.04,-0.46 -0.08,-0.92 -0.08,-1.38 v -0.35 c 0,-0.42 0.02,-0.83 0.06,-1.25 v -0.02 c 0.02,-0.15 0.02,-0.33 0.04,-0.48 0.06,-0.46 0.13,-0.92 0.23,-1.38 0,-0.04 0,-0.08 0.02,-0.1 0.06,-0.33 0.17,-0.67 0.27,-1 0.29,-1 0.69,-1.96 1.21,-2.88 0.25,-0.44 0.54,-0.88 0.85,-1.29 0.17,-0.21 0.31,-0.42 0.48,-0.6 l 0.52,-0.58 c 1.46,-1.48 3.31,-2.63 5.59,-3.17 2.67,-0.94 5.63,-0.92 8.34,-0.15 0.48,0.15 0.96,0.31 1.42,0.48 3.38,1.35 6.19,3.94 7.25,7.46 0.31,1 0.48,2.08 0.46,3.23 1.08,5.13 -1.88,10.61 -6.19,13.48 z"
       id="path59" />
  </g>
  <path
     class="cls-5"
     d="m 189.18437,302.0265 c 18.6,-3.9 7.83,-34.35 -8.89,-25.3 -15.37,5.2 -6.67,30.34 8.89,25.3 z"
     id="path60" />
  <path
     class="cls-5"
     d="m 299.36437,206.5165 c 9.36,6.04 22.8,-4.35 19.52,-14.91 -1.15,-10.37 -16.48,-14.29 -22.91,-6.63 -6.32,5.78 -4.93,18.1 3.39,21.53 z"
     id="path61" />
  <path
     class="cls-5"
     d="m 218.71437,335.1965 c 0,0 -0.02,-0.01 -0.03,-0.02 -0.64,0.55 -1.28,1.08 -1.92,1.62 0.66,-0.54 1.32,-1.08 1.95,-1.6 z"
     id="path62" />
  <path
     class="cls-2"
     d="m 138.01437,135.9965 c -0.17,1.6 -0.17,3.25 0,4.9 0.06,4.42 1.38,8.65 3.54,12.36 -1.33,-5.69 -2.52,-11.46 -3.54,-17.26 z"
     id="path63" />
  <path
     class="cls-2"
     d="m 204.44437,309.1365 c 13.12,-11.23 11.12,-34.5 -3.78,-43.27 -7.31,-6.2 -19.75,-0.82 -25.14,-9.52 -34.41,-49.9 -52.04,-110.41 -52.54,-170.850001 -0.01,-1.2 -0.03,-2.38 -0.03,-3.58 0.01,-1.43 0.01,-2.86 0.03,-4.29 0.06,-0.01 0.13,-0.04 0.19,-0.06 0.06,-1.04 0.13,-2.07 0.19,-3.11 0.07,-1.18 0.15,-2.36 0.23,-3.53 0.04,-0.67 0.09,-1.34 0.15,-2.01 0.2,-2.69 0.42,-5.27 0.63,-7.64 0.03,-0.42 0.06,-0.83 0.1,-1.24 0.16,-1.75 0.32,-3.37 0.45,-4.79 0.19,-1.58 0.32,-2.51 0.32,-2.51 l 0.1,-0.04 c 1.24,-13.01 5.85,-27.2 19.4,-31.91 12.26,-2.77 21.75,4.93 29.85,13.43 0.92,0.96 1.82,1.94 2.7,2.91 4.67,-0.55 12.88,-1.36 23.45,-1.8 -0.04,-0.07 -0.1,-0.16 -0.16,-0.23 -9.88,-13.45 -21.18,-26.3699997 -36.93,-32.7199997 -19.49,-7.55 -42.44,3.93 -51.45,21.9899997 -4.1,8.93 -5.49,18.61 -6.69,28.28 -0.03,0.28 -0.07,0.67 -0.13,1.15 -0.01,0.16 -0.03,0.32 -0.06,0.5 0,0.03 0,0.04 -0.01,0.07 -0.01,0.13 -0.03,0.28 -0.04,0.42 v 0.04 c -0.01,0.16 -0.03,0.34 -0.06,0.51 -0.12,1.18 -0.28,2.67 -0.44,4.39 v 0.1 c -0.04,0.36 -0.07,0.73 -0.12,1.12 -0.07,0.77 -0.15,1.59 -0.22,2.44 -0.04,0.53 -0.09,1.07 -0.13,1.61 -0.01,0.15 -0.01,0.31 -0.03,0.45 l -0.1,1.21 c -0.04,0.76 -0.1,1.55 -0.16,2.35 -0.06,0.83 -0.12,1.71 -0.18,2.61 l -0.13,2.22 c -0.01,0.16 -0.01,0.31 -0.03,0.45 -0.01,0.28 -0.03,0.55 -0.04,0.83 v 0 c -0.01,0.28 -0.03,0.53 -0.03,0.79 -0.01,0.15 -0.01,0.31 -0.03,0.45 -0.06,1.09 -0.1,2.22 -0.13,3.36 0,0.1 -0.01,0.2 -0.01,0.31 0,0 -0.03,0.77 -0.04,0.98 v 0.2 c -0.03,0.66 -0.04,1.33 -0.06,1.99 v 0.19 c -0.03,1.08 -0.04,2.1 -0.06,3.12 v 0.04 c 0.23,16.290001 1.4,32.580001 3.94,48.690001 0.38,2.47 0.8,4.92 1.26,7.37 -0.09,0.04 -0.16,0.07 -0.25,0.1 0.23,1.3 0.48,2.6 0.72,3.91 1.01,5.49 2.1,11.11 3.21,16.23 0.01,-0.01 0.04,-0.01 0.06,-0.03 0.6,2.38 1.21,4.74 1.87,7.11 10,36.63 26.12,71.56 48.07,102.57 -2.96,9.2 -6.93,19.72 -1.27,28.8 7.47,16.01 31.08,20.64 43.56,7.81 z m -24.15,-32.41 c 16.72,-9.05 27.49,21.4 8.89,25.3 -15.56,5.04 -24.26,-20.1 -8.89,-25.3 z"
     id="path64" />
  <path
     class="cls-4"
     d="m 216.38437,337.1065 c 0.13,-0.11 0.26,-0.21 0.39,-0.32 0.64,-0.54 1.28,-1.07 1.92,-1.62 0,0 0,0 0,0 -0.76,0.65 -1.53,1.3 -2.31,1.94 z"
     id="path65" />
  <path
     class="cls-2"
     d="m 257.30437,375.1265 c 1.19,0.71 2.4,1.42 3.61,2.13 l 15.53,8.32 -19.13,-10.44 z"
     id="path66" />
  <g
     id="g80"
     transform="translate(-180.42563,-165.4335)">
    <path
       class="cls-8"
       d="m 483.77,218.09 c -8.75,-2.27 -17.65,-3.96 -26.53,-5.67 -2.77,-0.54 -5.52,-1.08 -8.29,-1.65 -3.4,-0.67 -6.79,-1.38 -10.17,-2.17 l -18.8,-0.29 c -1.48,-0.08 -2.92,-0.17 -4.36,-0.23 -0.04,0.04 -0.06,0.08 -0.1,0.15 l 0.02,-0.15 c -5.11,-0.23 -10.02,-0.33 -14.65,-0.35 -4.42,-0.02 -8.61,0.04 -12.5,0.15 0.04,0.06 0.1,0.15 0.15,0.23 -0.04,-0.08 -0.1,-0.15 -0.17,-0.23 -13.78,0.4 -23.99,1.46 -28.72,2.02 -0.85,0.19 -1.69,0.35 -2.52,0.52 -2.79,0.58 -5.59,1.15 -8.38,1.69 -3.65,0.71 -7.29,1.4 -10.94,2.1 -7.59,1.42 -15.15,2.9 -22.67,4.59 l -0.42,4.29 -0.19,0.08 -0.27,2.96 c -0.04,0.42 -0.08,0.75 -0.08,1.08 -0.23,2.46 -0.44,5.02 -0.63,7.67 -0.08,0.71 -0.1,1.31 -0.15,1.94 -0.1,1.21 -0.17,2.35 -0.25,3.52 l -0.02,0.4 c 9.52,-2.77 19.17,-5.09 28.93,-6.9 47.39,-8.94 96.72,-6.98 143.43,4.98 -0.27,-7.15 -0.85,-14.05 -1.71,-20.74 z"
       id="path67" />
    <g
       id="g79">
      <path
         class="cls-8"
         d="m 562.46,332.08 c -1.47,-0.76 -2.96,-1.5 -4.44,-2.25 l -0.03,0.25 4.58,2.07 c 0,0 -0.09,-0.06 -0.12,-0.07 z"
         id="path68" />
      <path
         class="cls-8"
         d="m 563.62,332.8 0.55,0.35 h 0.03 c -0.2,-0.13 -0.39,-0.25 -0.58,-0.35 z"
         id="path69" />
      <path
         class="cls-8"
         d="m 577.81,341.59 5.14,3.26 c -1.58,-1.02 -3.33,-2.13 -5.14,-3.26 z"
         id="path70" />
      <path
         class="cls-8"
         d="m 586.45,321.34 h 0.02 c -0.63,5.27 -1.33,10.52 -2.1,15.78 -1.46,-0.94 -3.02,-1.92 -4.58,-2.9 -0.69,-0.44 -1.4,-0.88 -2.08,-1.31 -1.35,-0.83 -2.69,-1.67 -3.92,-2.42 -0.48,-0.31 -0.94,-0.58 -1.38,-0.85 -1.54,-0.96 -2.9,-1.79 -3.94,-2.44 -0.29,-0.19 -0.56,-0.35 -0.81,-0.5 -0.25,-0.15 -0.46,-0.27 -0.65,-0.4 -0.19,-0.1 -0.33,-0.21 -0.46,-0.27 -0.17,-0.1 -0.27,-0.19 -0.29,-0.19 l -0.23,-0.15 -0.17,-0.06 c 0.58,-5.04 1.08,-10.13 1.5,-15.19 0.92,-11.67 1.35,-23.38 1.13,-35.12 -9.46,-5.38 -19.03,-10.55 -28.76,-15.36 -4.27,-2.1 -8.54,-4.15 -12.86,-6.11 l -0.04,-4.67 c -0.06,-6.04 -0.38,-11.8 -0.79,-16.94 7.73,3 15.32,6.34 22.8,9.9 9.96,4.75 19.74,9.92 29.34,15.38 3.23,2.63 8.84,3.98 9.48,8.71 2,18.36 0.94,36.8 -1.21,55.1 z"
         id="path71" />
      <path
         class="cls-8"
         d="m 285.14,225.82 c 0,0.19 -0.02,0.35 -0.04,0.56 -0.02,0.21 -0.04,0.42 -0.06,0.63 z"
         id="path72" />
      <path
         class="cls-8"
         d="m 274.15,232.28 -0.29,4.17 -0.13,2.1 c 0,0.1 -0.15,2.69 -0.15,2.69 -0.04,1.15 -0.1,2.33 -0.12,3.52 l -0.02,0.33 -0.04,1.33 c -0.04,0.65 -0.04,1.29 -0.06,1.98 v 0.25 c -0.02,1.02 -0.04,1.98 -0.06,3.13 v 0.35 c 0,0.52 0.02,1.02 0.04,1.54 -2.04,0.88 -4.06,1.81 -6.06,2.75 -12.34,5.77 -24.32,12.32 -36.26,18.88 -0.06,14 0.67,27.97 2.1,41.89 h -0.02 c 0.29,2.79 0.63,5.61 0.96,8.4 l -2.65,1.54 c -5.88,3.46 -11.17,6.69 -15.82,9.67 -0.52,-3.69 -1.02,-7.38 -1.5,-11.07 -2.52,-20.22 -3.9,-40.62 -1.54,-60.88 13.15,-10.32 27.97,-18.24 43.31,-25.03 6.06,-2.67 12.19,-5.19 18.32,-7.57 z"
         id="path73" />
      <path
         class="cls-8"
         d="m 224.16,375.88 c 3.67,12.92 8.34,25.51 12.92,38.1 0.96,2.63 1.92,5.27 2.88,7.92 l 10.71,20.88 c 1.54,2.65 3.11,5.31 4.69,7.94 0.77,1.29 1.52,2.58 2.31,3.86 2.17,3.63 4.38,7.23 6.63,10.8 l 13.05,20.17 c 2.48,3.19 4.98,6.36 7.52,9.48 6.75,8.29 13.73,16.38 20.99,24.26 0.65,0.71 1.29,1.4 1.94,2.08 l 18.96,-9.17 c -40.91,-40.58 -70.21,-92.43 -85.22,-148.03 -5.86,3.81 -11.63,7.79 -17.38,11.71 z"
         id="path74" />
      <path
         class="cls-8"
         d="m 434.08,544.92 c -10.67,8.04 -21.72,15.73 -34.1,20.36 -0.54,0.19 -1.06,0.42 -1.6,0.6 -12,-6.31 -23.28,-13.86 -34.1,-22.01 -1.5,-1.13 -2.98,-2.27 -4.46,-3.44 h -0.02 c -5.48,2.92 -13.17,6.98 -19.55,10.32 3.5,2.81 7.07,5.54 10.67,8.23 12.48,9.25 25.59,17.71 39.33,25.03 2.94,1.71 6.36,3.04 9.73,3.19 v -0.02 c 2.38,0.1 4.71,-0.42 6.86,-1.81 17.26,-8.84 33.45,-19.69 48.73,-31.68 1.13,-0.9 2.25,-1.77 3.38,-2.69 l -19.13,-10.44 c -1.9,1.46 -3.81,2.92 -5.73,4.36 z"
         id="path75" />
      <polygon
         class="cls-8"
         points="570.35,415.34 570.33,415.34 570.33,415.35 "
         id="polygon75" />
      <polygon
         class="cls-8"
         points="570.62,414.56 570.61,414.56 570.61,414.58 "
         id="polygon76" />
      <path
         class="cls-8"
         d="m 554.07,350.08 c 2.15,1.2 4.26,2.42 6.38,3.69 l -6.25,-4.2 z"
         id="path76" />
      <path
         class="cls-8"
         d="m 579.15,366.37 c 0.19,0.15 0.38,0.29 0.56,0.42 -0.22,-0.18 -0.42,-0.34 -0.63,-0.5 0.01,0.03 0.04,0.06 0.07,0.07 z"
         id="path77" />
      <path
         class="cls-8"
         d="m 584.21,370.43 c 0.25,0.2 0.48,0.39 0.73,0.6 v -0.04 c 0,0 -2.07,-1.66 -2.07,-1.66 0.45,0.36 0.89,0.73 1.34,1.11 z"
         id="path78" />
      <path
         class="cls-8"
         d="m 570.36,369.23 -11.59,-7.79 c -1.5,6.13 -3.21,12.23 -5.11,18.26 -15.63,49.85 -43.58,95.83 -80.65,132.63 6.42,3.31 12.84,6.27 19.24,8.88 6.98,-7.13 13.38,-14.8 19.74,-22.47 1.04,-1.25 2.08,-2.5 3.13,-3.75 0.77,-0.94 1.56,-1.85 2.33,-2.77 1.81,-2.19 3.65,-4.36 5.5,-6.5 l 13.71,-20.57 c 1.46,-3.29 3.13,-6.44 4.92,-9.54 0.48,-0.85 0.98,-1.71 1.48,-2.56 0.48,-0.81 0.96,-1.6 1.44,-2.4 0.73,-1.23 1.48,-2.46 2.23,-3.71 0.83,-1.38 1.67,-2.77 2.5,-4.19 l 10.96,-21.01 v -0.02 c 0,0 0.04,-0.08 0.06,-0.13 0.15,-0.38 0.29,-0.77 0.44,-1.15 v -0.06 c 0.08,-0.19 0.15,-0.38 0.23,-0.56 0.73,-1.94 1.44,-3.87 2.14,-5.83 h 0.24 v -0.65 c 0,0 0,-0.01 0,-0.02 0.04,-0.17 0.1,-0.31 0.17,-0.48 0.1,-0.25 0.19,-0.5 0.27,-0.75 0.83,-2.27 1.65,-4.54 2.48,-6.84 0.81,-2.27 1.6,-4.54 2.4,-6.84 0.81,-2.29 1.58,-4.58 2.35,-6.88 0.75,-2.29 1.52,-4.58 2.27,-6.9 0.92,-2.9 1.85,-5.81 2.73,-8.73 0.08,-0.27 0.17,-0.52 0.25,-0.79 0.15,-0.48 0.29,-0.94 0.42,-1.42 -0.73,-0.58 -1.4,-1.1 -2.06,-1.63 l -4.23,-2.83 z"
         id="path79" />
    </g>
  </g>
  <path
     class="cls-2"
     d="m 369.87437,352.5365 c 0.15,21.18 -20.25,37.24 -40.32,37.9 -15.05,0.89 -28.91,-5.93 -42.23,-11.96 l -19.08,-10.22 c -1.43,-0.83 -2.85,-1.68 -4.25,-2.53 -10.18,-6.13 -19.99,-12.76 -29.71,-19.55 -1.91,-1.34 -3.83,-2.7 -5.72,-4.04 -1.23,-0.88 -2.47,-1.74 -3.69,-2.61 l 11.61,-9.99 0.58,0.18 3.08,-3.05 c 0.22,-0.22 0.44,-0.44 0.66,-0.66 3.43,2.66 6.92,5.26 10.47,7.77 20.63,14.66 42.89,27.05 66.75,35.52 11.47,3.66 26.88,-0.61 30.95,-13.01 2.01,-7.68 0.48,-15.24 -1.85,-22.64 -0.57,-1.8 -1.18,-3.58 -1.81,-5.36 0.92,-1.09 1.84,-2.18 2.76,-3.24 l 0.31,-0.35 10.76,-16.15 c 1.52,4.2 3.18,8.39 4.74,12.6 3.74,10.1 6.89,20.37 6.01,31.39 z"
     id="path80" />
  <path
     class="cls-4"
     d="m 218.72437,335.1865 c 7.34,-6.05 12.71,-10.79 16.02,-13.79 z"
     id="path81" />
  <path
     class="cls-8"
     d="m 102.00437,321.5265 c -0.88,-1.08 -1.73,-2.19 -2.559994,-3.27 l -20.84,-32.18 -1.35,3.06 c 2.17,3.63 4.38,7.23 6.63,10.8 l 13.05,20.17 c 2.48,3.19 4.979994,6.36 7.519994,9.48 l 1.29,-3.46 -3.73,-4.61 z"
     id="path82" />
  <path
     class="cls-4"
     d="m 319.11437,170.4265 c -13.9,-8.7 -33.74,-0.96 -39.27,14.09 -5.47,11.28 1.65,22.73 6.66,32.63 -24.77,51.65 -64.44,95.39 -112.53,126.26 -4.09,2.61 -8.22,5.14 -12.42,7.56 l -33.59,16.25 c -0.85,0.28 -1.71,0.54 -2.58,0.8 -0.88,0.25 -1.77,0.5 -2.66,0.73 -0.18,0.04 -0.36,0.09 -0.55,0.13 -0.7,0.18 -1.42,0.35 -2.13,0.5 -1.34,0.29 -2.69,0.53 -4.03,0.69 -7.61,0.96 -15.07,-0.16 -21.079994,-6.09 -2.12,-2.37 -3.55,-4.92 -4.45,-7.58 -0.58,-1.78 -0.95,-3.61 -1.11,-5.46 -0.04,-0.47 -0.07,-0.93 -0.09,-1.4 -0.04,-0.95 -0.03,-1.88 0.03,-2.85 0.01,-0.47 0.06,-0.95 0.1,-1.43 0.09,-0.95 0.22,-1.91 0.38,-2.88 0.32,-1.91 0.76,-3.85 1.3,-5.77 0.23,-0.86 0.48,-1.72 0.76,-2.57 0.03,-0.1 0.06,-0.2 0.09,-0.31 0.61,-1.93 1.28,-3.82 1.97,-5.68 -0.93,-1.15 -1.84,-2.32 -2.74,-3.49 l -0.19,-0.23 -10.64,-16.44 c -2.76,6.23 -5.49,12.56 -7.59,19.02 -2.69,8.22 -4.35,16.69 -3.77,25.5 0.34,21.05 20.32,37.88 40.659994,38.47 9.74,0.42 18.83,-2.55 27.69,-6.25 2.28,-0.95 4.54,-1.94 6.8,-2.95 2.32,-1.02 33.37,-17.47 33.37,-17.47 2.18,-1.34 4.34,-2.7 6.5,-4.07 9.53,-6.03 18.92,-12.35 27.78,-19.33 0.36,-0.29 0.72,-0.57 1.07,-0.86 0.62,-0.5 1.2,-0.97 1.81,-1.45 -0.95,0.77 -1.9,1.56 -2.87,2.32 1.27,-1.02 2.49,-2 3.67,-2.96 0.31,-0.25 0.64,-0.51 0.94,-0.75 0.13,-0.11 0.26,-0.22 0.39,-0.32 -0.13,0.11 -0.26,0.21 -0.39,0.32 0.77,-0.64 1.54,-1.28 2.3,-1.94 0,0 0,0 0,0 v 0 c 0,0 0.01,0.01 0.03,0.01 l 16.02,-13.79 v 0 c 0,0 0.26,0.07 0.26,0.07 1.25,-1.23 2.48,-2.49 3.73,-3.74 2.36,-2.41 4.7,-4.83 6.99,-7.3 22.55,-24.09 42.04,-51.05 56.57,-80.7 2.12,-7.27 10.31,-8 16.01,-11.28 19.52,-7.55 19.14,-39.2 0.8,-48.02 z m -19.75,36.09 c -8.32,-3.43 -9.71,-15.75 -3.39,-21.53 6.42,-7.66 21.75,-3.74 22.91,6.63 3.28,10.55 -10.16,20.95 -19.52,14.91 z"
     id="path83" />
</svg>
